<?xml version="1.0" standalone="no"?>
<!DOCTYPE svg PUBLIC "-//W3C//DTD SVG 1.1//EN" "http://www.w3.org/Graphics/SVG/1.1/DTD/svg11.dtd" >
<svg xmlns="http://www.w3.org/2000/svg">
<metadata></metadata>
<defs>
<font id="klavikalight_italic" horiz-adv-x="1060" >
<font-face units-per-em="2048" ascent="1536" descent="-512" />
<missing-glyph horiz-adv-x="450" />
<glyph unicode="&#xfb01;" horiz-adv-x="1138" d="M6 -350q63 53 94.5 109.5t49.5 158.5l172 981h-187l17 98h188l33 189q23 131 94.5 195.5t196.5 64.5q138 0 294 -60l-24 -88q-155 50 -268 50q-83 0 -124 -40.5t-55 -121.5l-32 -189h536l58 9l-177 -1006h-114l157 899h-479l-174 -995q-19 -109 -62.5 -186.5 t-125.5 -141.5z" />
<glyph unicode="&#xfb02;" horiz-adv-x="1161" d="M6 -350q63 53 94.5 109.5t49.5 158.5l172 981h-187l17 98h188l33 189q13 72 33.5 118.5t59.5 80t98.5 47.5t148.5 14q145 0 315 -45l117 20l-250 -1421h-115l232 1311q-170 39 -305 39q-113 0 -158.5 -37t-61.5 -127l-32 -189h284l-26 -98h-277l-174 -995 q-19 -109 -62.5 -186.5t-125.5 -141.5z" />
<glyph horiz-adv-x="0" />
<glyph horiz-adv-x="682" />
<glyph unicode=" "  horiz-adv-x="450" />
<glyph unicode="&#x09;" horiz-adv-x="450" />
<glyph unicode="&#xa0;" horiz-adv-x="450" />
<glyph unicode="!" horiz-adv-x="512" d="M102 0l31 176h123l-31 -176h-123zM195 352l34 342l125 711h115l-125 -711l-84 -342h-65z" />
<glyph unicode="&#x22;" horiz-adv-x="718" d="M207 905l88 500h100l-88 -500h-100zM520 905l88 500h101l-88 -500h-101z" />
<glyph unicode="#" horiz-adv-x="1441" d="M106 369l23 96h279l96 424h-279l23 96h278l78 338h105l-78 -338h403l78 338h105l-78 -338h278l-22 -96h-279l-96 -424h278l-22 -96h-279l-82 -369h-104l82 369h-404l-81 -369h-105l82 369h-279zM512 465h403l97 424h-404z" />
<glyph unicode="$" horiz-adv-x="1028" d="M41 41l27 94q191 -53 340 -53q88 0 141 9.5t90 37.5t55 70t31 114q16 88 16 131q0 66 -46 97.5t-197 79.5q-168 55 -226.5 104t-58.5 141q0 44 18 154q17 97 42.5 155.5t72 97t113 53.5t172.5 17l37 203h110l-37 -205q123 -6 246 -38l-20 -99q-155 37 -295 37 q-52 0 -90.5 -2t-70 -8.5t-53 -14t-38.5 -23t-27.5 -29.5t-19.5 -40.5t-14.5 -50t-12.5 -61.5q-18 -106 -18 -135q0 -58 42.5 -85.5t190.5 -78.5q175 -60 235 -110t60 -144q0 -53 -16 -144q-13 -72 -27 -118t-40.5 -89t-66 -67t-99.5 -39.5t-146 -19.5l-37 -205h-111l37 205 q-173 7 -309 59z" />
<glyph unicode="%" horiz-adv-x="1712" d="M168 838q0 31 6 65l37 213q26 141 101 204.5t233 63.5q120 0 185 -57.5t65 -159.5q0 -23 -7 -63l-32 -184q-12 -67 -31.5 -114.5t-57 -86.5t-99.5 -58.5t-150 -19.5q-250 0 -250 197zM266 848q0 -64 36.5 -92.5t129.5 -28.5q105 0 156 46.5t69 146.5l35 194q6 30 6 53 q0 131 -166 131q-105 0 -156 -44.5t-67 -135.5l-37 -211q-6 -35 -6 -59zM440 27l795 1357l80 -47l-797 -1357zM958 176q0 26 7 66l36 213q26 141 101 204.5t233 63.5q120 0 185 -57.5t65 -159.5q0 -30 -6 -64l-33 -184q-12 -67 -31.5 -114t-57 -86.5t-99.5 -58.5t-150 -19 q-250 0 -250 196zM1057 186q0 -63 36.5 -91.5t129.5 -28.5q106 0 156.5 46t68.5 146l35 195q6 30 6 53q0 131 -166 131q-105 0 -156 -44.5t-67 -135.5l-37 -211q-6 -35 -6 -60z" />
<glyph unicode="&#x26;" horiz-adv-x="1425" d="M94 215q0 24 8 78l66 369q65 356 422 356q137 0 221 -61t84 -173q0 -154 -145 -231h286q138 0 225.5 21.5t176.5 82.5l45 -77q-151 -127 -420 -127q-41 -84 -82 -149.5t-100 -128.5t-125.5 -104t-156.5 -66t-196 -25q-156 0 -232.5 64t-76.5 171zM209 221q0 -81 48 -110 t165 -29q179 0 305.5 94.5t218.5 276.5h-354l-25 100q98 30 155.5 92.5t57.5 130.5q0 67 -52.5 103t-149.5 36q-112 0 -191.5 -62.5t-103.5 -190.5l-66 -369q-8 -54 -8 -72z" />
<glyph unicode="'" horiz-adv-x="405" d="M207 905l88 500h100l-88 -500h-100z" />
<glyph unicode="(" horiz-adv-x="608" d="M150 356q0 351 127 642.5t374 562.5l76 -64q-240 -283 -352.5 -547t-112.5 -594q0 -170 37 -315.5t119 -306.5l-94 -49q-92 169 -133 326.5t-41 344.5z" />
<glyph unicode=")" horiz-adv-x="608" d="M-82 -248q159 187 256.5 355t150 362.5t52.5 419.5q0 170 -37 315.5t-119 306.5l94 50q91 -169 132.5 -326.5t41.5 -345.5q0 -351 -127 -642t-374 -562z" />
<glyph unicode="*" horiz-adv-x="968" d="M215 1055l12 71h310l-125 267l69 34l125 -264l209 264l59 -47l-210 -254h311l-12 -71h-310l129 -264l-71 -35l-127 272l-222 -272l-61 51l209 248h-295z" />
<glyph unicode="+" horiz-adv-x="1099" d="M133 446v103h359v366h110v-366h359v-103h-359v-366h-110v366h-359z" />
<glyph unicode="," horiz-adv-x="491" d="M31 -193l108 193h-47l31 176h123l-31 -176l-139 -221z" />
<glyph unicode="-" horiz-adv-x="733" d="M143 524l17 101h471l-17 -101h-471z" />
<glyph unicode="." horiz-adv-x="491" d="M92 0l31 176h123l-31 -176h-123z" />
<glyph unicode="/" horiz-adv-x="888" d="M-2 -240l790 1624h121l-792 -1624h-119z" />
<glyph unicode="0" horiz-adv-x="1142" d="M121 246q0 22 8 80l119 673q34 189 140 266.5t327 77.5q170 0 261 -77.5t91 -210.5q0 -24 -8 -78l-113 -641q-13 -73 -32 -125.5t-53.5 -98.5t-84.5 -73.5t-125 -43t-176 -15.5q-181 0 -267.5 70t-86.5 196zM236 250q0 -88 59.5 -128t198.5 -40q162 0 237.5 61t99.5 195 l113 639q8 39 8 78q0 94 -60 140t-196 46q-163 0 -237.5 -59t-98.5 -195l-116 -659q-8 -44 -8 -78z" />
<glyph unicode="1" horiz-adv-x="657" d="M109 1124l378 199h107l-234 -1323h-114l209 1186l-301 -156z" />
<glyph unicode="2" horiz-adv-x="997" d="M41 0l16 104q221 225 453 471q175 183 218 238q69 88 83 164l8 45q8 41 8 82q0 73 -52.5 105t-194.5 32q-67 0 -157.5 -16t-154.5 -35l-14 94q182 59 356 59q332 0 332 -239q0 -32 -6 -70l-10 -57q-10 -55 -25.5 -95t-57.5 -95.5t-85 -103t-142 -152.5q-13 -14 -20 -21 q-157 -167 -393 -408h579l-16 -102h-725z" />
<glyph unicode="3" horiz-adv-x="983" d="M16 41l27 96q159 -55 322 -55q111 0 173.5 23.5t91 68.5t42.5 129l16 94q4 24 4 52q0 165 -221 165h-264l18 103h273q105 0 168 48t77 130l29 164q4 24 4 45q0 73 -57 105t-176 32q-116 0 -289 -37l-16 99q157 40 319 40q167 0 251.5 -61t84.5 -168q0 -27 -6 -57 l-27 -152q-17 -101 -60 -151.5t-141 -87.5q69 -15 108.5 -72t39.5 -139q0 -26 -4 -58l-17 -96q-12 -70 -27.5 -116.5t-45 -88.5t-74.5 -65.5t-114.5 -37t-166.5 -13.5q-190 0 -342 61z" />
<glyph unicode="4" horiz-adv-x="1089" d="M37 358l16 123l748 842h164l-154 -866h203l-19 -99h-200l-64 -358h-115l64 358h-643zM170 457h526l133 749z" />
<glyph unicode="5" horiz-adv-x="987" d="M39 33l27 96q174 -47 313 -47q109 0 172.5 22.5t96 71.5t48.5 139l17 91q8 50 8 73q0 79 -50 115t-165 37q-16 0 -161 2t-159 2l121 688h668l-17 -102h-555l-84 -484q39 -1 68.5 -1.5t71 -1t82.5 -1.5q149 -3 222 -68t73 -178q0 -25 -7 -69l-18 -107q-13 -71 -30.5 -120 t-49.5 -91.5t-80 -67t-120 -38.5t-171 -14q-167 0 -321 53z" />
<glyph unicode="6" horiz-adv-x="1048" d="M119 229q0 37 6 74l102 580q31 175 89.5 271.5t173 142.5t309.5 46q118 0 213 -28l-23 -96q-90 22 -180 22q-87 0 -150.5 -7.5t-112.5 -26t-81 -44t-56.5 -68.5t-39 -92.5t-27.5 -121.5l-35 -197q155 51 305 51q162 0 232.5 -54.5t70.5 -164.5q0 -40 -10 -98l-20 -115 q-15 -84 -39.5 -139.5t-72 -99.5t-125.5 -64t-193 -20q-336 0 -336 249zM236 244q0 -90 58.5 -126t178.5 -36q143 0 210 49.5t87 167.5l23 129q8 54 8 72q0 71 -47 102t-164 31q-144 0 -303 -62l-47 -270q-4 -25 -4 -57z" />
<glyph unicode="7" horiz-adv-x="868" d="M43 0l788 1225h-641l17 98h762l-17 -94l-788 -1229h-121z" />
<glyph unicode="8" horiz-adv-x="1128" d="M111 211q0 22 8 80l8 45q24 132 98.5 209t243.5 131q-193 119 -193 276q0 10 5 45l4 29q30 165 128.5 241t303.5 76q156 0 241.5 -69t85.5 -182q0 -24 -6 -58l-6 -37q-18 -108 -87.5 -185t-223.5 -138q121 -55 178 -120t57 -155q0 -25 -6 -63l-8 -45q-15 -85 -43.5 -141 t-81.5 -95.5t-135.5 -57t-204.5 -17.5q-189 0 -277.5 55.5t-88.5 175.5zM227 229q0 -84 61 -115.5t208 -31.5q164 0 237.5 47.5t95.5 169.5l9 45q6 35 6 55q0 69 -53 112t-201 110q-187 -69 -258 -123.5t-88 -149.5l-11 -57q-6 -34 -6 -62zM391 954q0 -128 215 -229 q150 64 221.5 121.5t87.5 142.5l11 55q4 28 4 46q0 151 -232 151q-142 0 -211.5 -52t-85.5 -151l-8 -49q-2 -18 -2 -35z" />
<glyph unicode="9" horiz-adv-x="1036" d="M74 8l22 96q90 -22 180 -22q89 0 153 7.5t113 26t81 44t55.5 68.5t37.5 92t27 122l35 197q-155 -51 -305 -51q-162 0 -232.5 55t-70.5 166q0 38 10 96l21 115q15 84 39.5 139.5t72 99.5t125.5 64t193 20q169 0 252.5 -68.5t83.5 -187.5q0 -29 -6 -67l-103 -580 q-15 -89 -34 -152t-49.5 -117t-71 -88t-100 -58.5t-136.5 -34.5t-180 -10q-118 0 -213 28zM287 825q0 -72 46.5 -103.5t162.5 -31.5q144 0 303 62l47 270q6 30 6 59q0 89 -59 124.5t-181 35.5q-142 0 -209.5 -49.5t-87.5 -167.5l-22 -129q-6 -41 -6 -70z" />
<glyph unicode=":" horiz-adv-x="495" d="M92 0l31 176h123l-31 -176h-123zM209 655l31 176h122l-30 -176h-123z" />
<glyph unicode=";" horiz-adv-x="493" d="M31 -193l108 193h-47l31 176h123l-31 -176l-139 -221zM207 655l31 176h122l-30 -176h-123z" />
<glyph unicode="&#x3c;" horiz-adv-x="1124" d="M102 457v86l813 475l50 -84l-750 -434l754 -437l-49 -83z" />
<glyph unicode="=" horiz-adv-x="966" d="M143 281v92h711v-92h-711zM143 637v92h711v-92h-711z" />
<glyph unicode="&#x3e;" horiz-adv-x="1124" d="M166 63l754 437l-750 434l49 84l813 -475v-86l-817 -477z" />
<glyph unicode="?" horiz-adv-x="946" d="M244 0l30 176h123l-30 -176h-123zM281 1393q145 32 301 32q177 0 248 -53.5t71 -175.5q0 -65 -14 -139q-12 -69 -21 -110t-25 -81.5t-29.5 -62t-46 -52.5t-61.5 -52.5t-88 -63.5q-96 -68 -241 -168l-58 88q115 77 256 174q75 52 108.5 88.5t53 87.5t37.5 154 q16 91 16 137q0 76 -47.5 101.5t-181.5 25.5q-118 0 -266 -31z" />
<glyph unicode="@" horiz-adv-x="1533" d="M154 539q0 256 88.5 444.5t267 294.5t430.5 106q131 0 234.5 -35.5t169 -97t99.5 -143t34 -176.5q0 -153 -44 -266.5t-138.5 -180.5t-231.5 -67q-96 0 -143 55q-108 -55 -213 -55q-72 0 -109 35.5t-37 95.5q0 15 4 43l41 231q18 100 67.5 141.5t162.5 41.5q57 0 124 -16 t113 -38l-78 -440q23 -10 66 -10q107 0 180.5 59.5t105 152.5t31.5 212q0 177 -115 272.5t-327 95.5q-320 0 -501 -199t-181 -554q0 -220 131.5 -344.5t396.5 -124.5q207 0 426 90l13 -84q-201 -98 -451 -98q-294 0 -455 150.5t-161 408.5zM651 551q0 -28 17.5 -38.5 t62.5 -10.5q84 0 180 55l60 342q-90 23 -148 23q-63 0 -89.5 -22t-35.5 -77l-43 -239q-4 -20 -4 -33z" />
<glyph unicode="A" horiz-adv-x="1261" d="M-2 0l700 1364h176l230 -1364h-119l-59 360h-617l-190 -360h-121zM362 463h543l-125 840z" />
<glyph unicode="B" horiz-adv-x="1144" d="M92 0l240 1364h506q122 0 189 -54.5t67 -152.5q0 -24 -7 -59l-26 -152q-8 -50 -18 -80.5t-30.5 -62.5t-56.5 -55.5t-92 -45.5q71 -15 114.5 -63.5t43.5 -132.5q0 -30 -6 -64l-33 -186q-24 -138 -108.5 -197t-247.5 -59h-535zM227 102h418q107 0 158 43.5t65 130.5l31 177 q4 32 4 43q0 72 -48 111.5t-148 39.5h-383zM342 750h338q231 0 262 188l31 176q4 24 4 35q0 113 -150 113h-395z" />
<glyph unicode="C" horiz-adv-x="1038" d="M117 272q0 41 10 103l109 614q37 210 156.5 302.5t363.5 92.5q174 0 317 -38l-20 -101q-157 35 -305 35q-187 0 -278 -68.5t-120 -234.5l-106 -600q-8 -44 -8 -88q0 -107 70 -156t231 -49q132 0 313 29l4 -101q-166 -32 -346 -32q-204 0 -297.5 74.5t-93.5 217.5z" />
<glyph unicode="D" horiz-adv-x="1210" d="M92 0l240 1364h444q190 0 278.5 -80.5t88.5 -224.5q0 -45 -10 -107l-101 -571q-18 -104 -48.5 -172t-85 -117t-138.5 -70.5t-207 -21.5h-461zM227 104h334q94 0 158 17.5t104 56t61.5 89.5t35.5 130l98 557q10 62 10 103q0 104 -61 153.5t-201 49.5h-334z" />
<glyph unicode="E" horiz-adv-x="1073" d="M92 0l240 1364h766l-19 -104h-647l-90 -512h602l-18 -105h-602l-97 -539h650l-17 -104h-768z" />
<glyph unicode="F" horiz-adv-x="1026" d="M92 0l240 1364h772l-19 -104h-655l-94 -533h610l-18 -104h-611l-108 -623h-117z" />
<glyph unicode="G" horiz-adv-x="1187" d="M117 266q0 52 12 117l107 604q18 106 50.5 176.5t92 122t152 75t227.5 23.5q88 0 189.5 -15t174.5 -40l-22 -100q-195 51 -359 51q-133 0 -211 -30t-118 -91.5t-60 -173.5l-106 -602q-10 -65 -10 -107q0 -100 63 -146t221 -46t305 39l86 485h117l-98 -565 q-189 -63 -436 -63q-199 0 -288 72t-89 214z" />
<glyph unicode="H" horiz-adv-x="1265" d="M92 0l240 1364h117l-107 -610h662l108 610h117l-240 -1364h-117l113 649h-661l-115 -649h-117z" />
<glyph unicode="I" horiz-adv-x="505" d="M102 0l240 1364h117l-240 -1364h-117z" />
<glyph unicode="J" horiz-adv-x="485" d="M-166 -313q66 56 99.5 84.5t66.5 60.5t44.5 45.5t23.5 37t15.5 38.5t8.5 45l242 1366h117l-246 -1391q-5 -25 -9 -43.5t-13.5 -39t-14.5 -32t-23 -32.5t-27.5 -31t-39.5 -37t-46 -40.5t-61.5 -51.5t-72.5 -61z" />
<glyph unicode="K" horiz-adv-x="1128" d="M92 0l240 1364h117l-240 -1364h-117zM381 694l649 670h148l-660 -676l451 -688h-131z" />
<glyph unicode="L" horiz-adv-x="1005" d="M92 0l240 1364h117l-224 -1260h615l-17 -104h-731z" />
<glyph unicode="M" horiz-adv-x="1634" d="M88 0l281 1364h172l223 -1120l614 1120h185l-199 -1364h-117l187 1247l-580 -1071h-195l-204 1071l-250 -1247h-117z" />
<glyph unicode="N" horiz-adv-x="1310" d="M92 0l240 1364h176l430 -1258l221 1258h115l-240 -1364h-176l-430 1255l-221 -1255h-115z" />
<glyph unicode="O" horiz-adv-x="1257" d="M123 301q0 52 8 96l100 566q40 227 164 324t381 97q201 0 307.5 -96t106.5 -246q0 -25 -8 -79l-103 -574q-17 -96 -52 -167t-97.5 -127.5t-162 -85.5t-235.5 -29q-213 0 -311 86t-98 235zM240 307q0 -111 70.5 -167t240.5 -56q101 0 174.5 20t121.5 60.5t75 95t41 129.5 l102 576q8 39 8 84q0 231 -311 231q-194 0 -290 -75t-126 -242l-98 -557q-8 -47 -8 -99z" />
<glyph unicode="P" horiz-adv-x="1087" d="M92 0l240 1364h461q323 0 323 -242q0 -24 -8 -78l-37 -208q-14 -79 -38.5 -132.5t-71.5 -97t-125.5 -64t-192.5 -20.5h-342l-92 -522h-117zM319 627h345q140 0 205 47t85 162l39 219q6 30 6 57q0 80 -53.5 114t-169.5 34h-346z" />
<glyph unicode="Q" horiz-adv-x="1257" d="M123 301q0 52 8 96l100 566q40 227 164 324t381 97q201 0 307.5 -96t106.5 -246q0 -25 -8 -79l-103 -574q-17 -96 -52 -167t-97.5 -127.5t-162 -85.5t-235.5 -29q-213 0 -311 86t-98 235zM240 307q0 -111 70.5 -167t240.5 -56q101 0 174.5 20t121.5 60.5t75 95t41 129.5 l102 576q8 39 8 84q0 231 -311 231q-194 0 -290 -75t-126 -242l-98 -557q-8 -47 -8 -99zM317 -262l19 100q294 -10 528 -59l-24 -103q-251 54 -523 62z" />
<glyph unicode="R" horiz-adv-x="1245" d="M92 0l240 1364h475q330 0 330 -246q0 -27 -7 -74l-38 -219q-23 -124 -84 -190.5t-191 -93.5l270 -541h-129l-262 526h-395l-92 -526h-117zM319 631h367q137 0 204 46t87 159l39 219q6 30 6 57q0 82 -54 115t-171 33h-367z" />
<glyph unicode="S" horiz-adv-x="1087" d="M45 49l29 96q199 -61 366 -61q122 0 191.5 26.5t102.5 78.5t50 149q17 90 17 127q0 68 -51.5 98.5t-221.5 73.5q-175 46 -241 103.5t-66 166.5q0 61 15 140q35 198 133 267.5t340 69.5q179 0 340 -45l-21 -98q-163 39 -323 39q-82 0 -137.5 -7.5t-93.5 -22.5t-61.5 -45 t-36.5 -66t-24 -95q-16 -88 -16 -131q0 -31 9 -53t23.5 -37.5t51 -31t71 -26.5t103.5 -30q191 -53 257.5 -105t66.5 -151q0 -48 -17 -141q-13 -77 -30.5 -128.5t-50.5 -98.5t-83.5 -73.5t-128 -42t-184.5 -15.5q-200 0 -379 69z" />
<glyph unicode="T" horiz-adv-x="1058" d="M180 1260l19 104h956l-18 -104h-420l-221 -1260h-117l221 1260h-420z" />
<glyph unicode="U" horiz-adv-x="1286" d="M143 307q0 29 9 90l170 967h116l-172 -977q-8 -58 -8 -82q0 -112 73.5 -166.5t233.5 -54.5q187 0 284.5 80t123.5 231l170 969h117l-173 -981q-13 -73 -36 -131t-65 -110t-100.5 -87t-144 -55t-194.5 -20q-206 0 -305 88.5t-99 238.5z" />
<glyph unicode="V" horiz-adv-x="1177" d="M211 1364h115l204 -1264l623 1264h121l-672 -1364h-170z" />
<glyph unicode="W" horiz-adv-x="1806" d="M209 1364h108l123 -1282l525 1282h180l94 -1282l530 1282h119l-563 -1364h-192l-89 1288l-520 -1288h-188z" />
<glyph unicode="X" horiz-adv-x="1177" d="M-16 0l573 692l-319 672h120l277 -584l481 584h137l-567 -684l326 -680h-121l-283 590l-487 -590h-137z" />
<glyph unicode="Y" horiz-adv-x="1071" d="M166 1364h115l258 -825l534 825h133l-633 -958l-71 -406h-117l76 424z" />
<glyph unicode="Z" horiz-adv-x="1134" d="M104 106l879 1154h-694l18 104h799l6 -107l-879 -1153h709l-16 -104h-813z" />
<glyph unicode="[" horiz-adv-x="616" d="M68 -258l331 1876h367l-18 -107h-254l-293 -1663h252l-19 -106h-366z" />
<glyph unicode="\" horiz-adv-x="878" d="M287 1384h108l217 -1624h-106z" />
<glyph unicode="]" horiz-adv-x="614" d="M-94 -258l18 106h254l293 1663h-252l19 107h366l-332 -1876h-366z" />
<glyph unicode="^" horiz-adv-x="927" d="M168 842l385 563h127l207 -584l-103 -37l-178 516l-352 -522z" />
<glyph unicode="_" horiz-adv-x="884" d="M8 -20h869v-54h-869v54z" />
<glyph unicode="`" horiz-adv-x="598" d="M266 1300l64 78q83 -72 217 -164l-55 -75q-150 92 -226 161z" />
<glyph unicode="a" horiz-adv-x="1021" d="M84 147q0 33 6 74l76 428q36 199 131 284t293 85q164 0 344 -66l-168 -952h-104l20 145q-194 -165 -401 -165q-99 0 -148 39t-49 128zM199 162q0 -45 22 -62.5t70 -17.5q91 0 200 54t209 143l107 604q-110 32 -234 32q-140 0 -204 -61t-93 -225l-71 -408q-6 -37 -6 -59z " />
<glyph unicode="b" horiz-adv-x="1028" d="M88 37l242 1368l116 16l-98 -565q87 74 193 118t209 44q99 0 148.5 -39.5t49.5 -128.5q0 -20 -8 -74l-76 -428q-34 -196 -130 -282t-294 -86q-181 0 -352 57zM215 106q108 -24 242 -24q140 0 204 61.5t93 225.5l71 407q6 37 6 62q0 45 -21.5 61t-70.5 16 q-93 0 -204.5 -53.5t-210.5 -142.5z" />
<glyph unicode="c" horiz-adv-x="817" d="M78 184q0 32 6 62l72 403q37 204 127.5 286.5t281.5 82.5q59 0 130.5 -12t117.5 -29l-25 -96q-115 34 -235 34q-137 0 -197.5 -60t-89.5 -226l-69 -398q-4 -32 -4 -45q0 -57 35.5 -80.5t111.5 -23.5q153 0 324 70l18 -97q-169 -75 -356 -75q-113 0 -180.5 52.5 t-67.5 151.5z" />
<glyph unicode="d" horiz-adv-x="1038" d="M84 147q0 33 6 74l76 428q35 201 133.5 285t290.5 84q50 0 123 -10t118 -23l74 420l117 16l-250 -1421h-104l20 145q-89 -76 -196 -120.5t-211 -44.5q-99 0 -148 39t-49 128zM199 162q0 -45 22 -62.5t70 -17.5q93 0 204.5 54t211.5 143l106 604q-128 32 -240 32 q-138 0 -203 -61t-94 -225l-71 -408q-6 -37 -6 -59z" />
<glyph unicode="e" horiz-adv-x="907" d="M84 205q0 40 10 98l60 336q34 193 138 286t294 93q123 0 193.5 -60.5t70.5 -171.5q0 -119 -86.5 -191t-292.5 -130l-244 -68l-24 -137q-4 -36 -4 -53q0 -67 36 -97t136 -30q145 0 352 96l29 -88q-207 -108 -396 -108q-139 0 -205.5 55.5t-66.5 169.5zM246 504 q38 10 231 61q138 36 200 89.5t62 133.5q0 132 -164 132q-133 0 -207 -70t-100 -219z" />
<glyph unicode="f" horiz-adv-x="702" d="M6 -350q63 53 94.5 109.5t49.5 158.5l172 981h-187l17 98h188l33 189q23 131 94.5 195.5t196.5 64.5q102 0 194 -39l-24 -88q-91 29 -168 29q-83 0 -124 -40.5t-55 -121.5l-32 -189h305l-27 -98h-297l-174 -995q-19 -109 -62.5 -186.5t-125.5 -141.5z" />
<glyph unicode="g" horiz-adv-x="1028" d="M23 -336l28 92q92 -38 194 -58t181 -20q107 0 147 35t58 135l59 334q-88 -74 -193 -118t-208 -44q-99 0 -148 39t-49 129q0 34 6 74l68 387q34 196 130.5 282.5t293.5 86.5q181 0 352 -57l-201 -1135q-26 -145 -94.5 -197.5t-228.5 -52.5q-84 0 -197.5 26t-197.5 62z M207 203q0 -45 22 -62.5t70 -17.5q93 0 205 54t211 142l100 572q-108 24 -242 24q-140 0 -204 -61t-93 -225l-63 -367q-6 -38 -6 -59z" />
<glyph unicode="h" d="M82 0l248 1405l116 16l-98 -565q87 59 215 110.5t211 51.5q89 0 132.5 -43t43.5 -121q0 -28 -6 -63l-139 -791h-115l144 811q4 24 4 33q0 36 -20 51.5t-64 15.5q-73 0 -196.5 -52.5t-229.5 -119.5l-131 -739h-115z" />
<glyph unicode="i" horiz-adv-x="462" d="M82 0l174 989l117 17l-176 -1006h-115zM289 1174l39 231l118 16l-40 -231z" />
<glyph unicode="j" horiz-adv-x="452" d="M-168 -340q63 51 86 70t58 50.5t44.5 43.5t24 35t18.5 40.5t9 45.5l184 1044l119 17l-193 -1084q-9 -52 -17 -77.5t-39 -65.5t-81 -82.5t-151 -120.5zM289 1174l39 231l118 16l-40 -231z" />
<glyph unicode="k" horiz-adv-x="925" d="M82 0l248 1405l116 16l-249 -1421h-115zM350 506l457 506l111 -41l-441 -469l299 -502h-127z" />
<glyph unicode="l" horiz-adv-x="462" d="M82 0l248 1405l116 16l-249 -1421h-115z" />
<glyph unicode="m" horiz-adv-x="1669" d="M82 0l174 989l100 17l-16 -154q83 58 216 112t218 54q89 0 132.5 -44t43.5 -122q81 59 214.5 112.5t217.5 53.5q90 0 133.5 -43t43.5 -121q0 -23 -7 -63l-139 -791h-115l144 811q4 24 4 33q0 36 -20 51.5t-64 15.5q-73 0 -197.5 -52.5t-228.5 -119.5l-131 -739h-115 l144 811q4 24 4 33q0 36 -20 51.5t-64 15.5q-73 0 -196.5 -52.5t-229.5 -119.5l-131 -739h-115z" />
<glyph unicode="n" d="M82 0l174 989l100 17l-16 -154q83 58 216 112t218 54q89 0 132.5 -43t43.5 -121q0 -28 -6 -63l-139 -791h-115l144 811q4 24 4 33q0 36 -20 51.5t-64 15.5q-73 0 -196.5 -52.5t-229.5 -119.5l-131 -739h-115z" />
<glyph unicode="o" horiz-adv-x="1015" d="M84 258q0 49 8 90l53 303q15 86 45.5 150.5t82.5 114.5t132.5 76t188.5 26q161 0 246.5 -76.5t85.5 -204.5q0 -21 -8 -75l-58 -326q-31 -175 -136 -265.5t-312 -90.5q-169 0 -248.5 75t-79.5 203zM199 262q0 -90 54 -135t177 -45q137 0 214.5 63.5t100.5 192.5l58 324 q6 37 6 69q0 93 -57 138.5t-177 45.5q-139 0 -215 -65.5t-100 -198.5l-55 -313q-6 -41 -6 -76z" />
<glyph unicode="p" horiz-adv-x="1038" d="M8 -420l250 1417h104l-20 -145q89 76 196.5 121t211.5 45q99 0 148.5 -39.5t49.5 -128.5q0 -20 -8 -74l-88 -497q-28 -160 -108.5 -229.5t-247.5 -69.5q-140 0 -295 38l-76 -421zM219 123q167 -41 299 -41q102 0 151.5 47t69.5 158l86 489q6 37 6 62q0 45 -21.5 61 t-70.5 16q-93 0 -204.5 -53.5t-210.5 -142.5z" />
<glyph unicode="q" horiz-adv-x="1028" d="M84 147q0 33 6 74l76 428q34 196 130.5 282.5t293.5 86.5q181 0 352 -57l-242 -1364l-116 -17l98 561q-87 -74 -192.5 -117.5t-208.5 -43.5q-99 0 -148 39t-49 128zM199 162q0 -45 22 -62.5t70 -17.5q93 0 204.5 54t211.5 143l108 612q-108 24 -242 24q-140 0 -204 -61 t-93 -225l-71 -408q-6 -37 -6 -59z" />
<glyph unicode="r" horiz-adv-x="616" d="M84 0l172 989l106 17l-24 -177q162 121 297 189l6 -113q-129 -75 -319 -200l-123 -705h-115z" />
<glyph unicode="s" horiz-adv-x="835" d="M51 31l25 94q131 -43 264 -43q128 0 171 30t60 134q3 20 3 38q0 48 -24 74q-32 36 -163 105q-44 23 -74.5 41t-58.5 37.5t-44.5 38t-30 39.5t-18 44.5t-4.5 51.5t5 63q10 62 29.5 104t58 74t102 47t156.5 15q151 0 276 -41l-20 -96q-136 34 -262 34t-167.5 -27 t-58.5 -120q-4 -25 -4 -44.5t1.5 -34.5t12.5 -29.5t20 -25t32 -25.5t41 -25.5t55 -30.5q64 -35 103 -58t72 -49t48.5 -46t24.5 -47.5t8 -56t-8 -69.5q-12 -69 -30 -112t-56 -75.5t-100.5 -46t-159.5 -13.5q-71 0 -150.5 13.5t-134.5 37.5z" />
<glyph unicode="t" horiz-adv-x="737" d="M125 899l16 98h193l43 244l117 16l-45 -260h299l-23 -98h-295l-129 -735q-4 -28 -4 -37q0 -28 15.5 -38.5t52.5 -10.5q86 0 198 47l29 -78q-118 -67 -248 -67q-77 0 -120.5 33.5t-43.5 99.5q0 11 4 39l131 747h-190z" />
<glyph unicode="u" d="M102 143q0 24 7 64l137 782l119 17l-146 -820q-4 -24 -4 -36q0 -64 84 -64q73 0 196.5 52.5t229.5 119.5l129 731l119 17l-178 -1006h-99l17 145q-93 -65 -218.5 -115t-215.5 -50t-133.5 42.5t-43.5 120.5z" />
<glyph unicode="v" horiz-adv-x="866" d="M117 989l110 17l150 -930l317 629q41 81 41 163q0 56 -20 121l119 17q18 -70 18 -134q0 -88 -37 -172l-360 -700h-174z" />
<glyph unicode="w" horiz-adv-x="1376" d="M129 989l107 17q90 -460 90 -936l387 710l-39 209l98 17l186 -936l232 571q35 90 35 203q0 69 -17 145l109 17q14 -86 14 -156q0 -123 -39 -229l-252 -621h-176l-123 629l-340 -629h-174q-3 587 -98 989z" />
<glyph unicode="x" horiz-adv-x="890" d="M-43 0l422 502l-236 487l107 17l207 -422l340 413h135l-426 -505l244 -492h-123l-197 401l-338 -401h-135z" />
<glyph unicode="y" horiz-adv-x="856" d="M-29 -332q125 45 207.5 119t159.5 213h-57l-164 989l110 17l150 -930l317 629q45 86 45 159q0 43 -24 125l116 17q21 -78 21 -138q0 -90 -37 -168l-360 -700q-33 -57 -54.5 -92t-54.5 -81.5t-64.5 -77.5t-73.5 -64t-93 -58.5t-113 -46.5z" />
<glyph unicode="z" horiz-adv-x="888" d="M51 94l662 811h-516l14 92h631v-94l-662 -811h541l-14 -92h-650z" />
<glyph unicode="{" horiz-adv-x="622" d="M127 -170q0 28 6 66l113 630q4 24 4 31q0 30 -18.5 42.5t-65.5 12.5h-31l19 103h30q56 0 78.5 19t30.5 67l110 631q20 110 68.5 148t155.5 38h151l-18 -102h-148q-44 0 -64 -17.5t-28 -60.5l-112 -633q-23 -139 -144 -141q96 -3 96 -97q0 -13 -4 -45l-110 -637 q-4 -20 -4 -30q0 -26 15 -34.5t54 -8.5h148l-19 -103h-151q-86 0 -124 27.5t-38 93.5z" />
<glyph unicode="|" horiz-adv-x="505" d="M246 -430v2048h76v-2048h-76z" />
<glyph unicode="}" horiz-adv-x="616" d="M-104 -291l18 103h147q44 0 64.5 17t28.5 60l112 633q23 140 144 142q-97 5 -97 96q0 17 4 45l111 637q4 20 4 28q0 26 -16 36t-54 10h-147l18 102h152q86 0 124 -27.5t38 -93.5q0 -27 -6 -65l-113 -631q-2 -12 -2 -31q0 -30 18 -42.5t64 -12.5h31l-19 -103h-31 q-56 0 -78 -19t-30 -67l-111 -630q-20 -111 -68.5 -149t-154.5 -38h-151z" />
<glyph unicode="~" horiz-adv-x="1003" d="M98 467q49 101 113.5 162t159.5 61q42 0 81 -18t69 -43.5t58 -51t60.5 -43.5t65.5 -18q34 0 59.5 11t47.5 40t32.5 47.5t33.5 65.5l9 18l69 -41q-24 -54 -43 -86.5t-49 -69t-70.5 -54t-91.5 -17.5q-42 0 -81 18t-69 43.5t-58 51t-61.5 43.5t-67.5 18q-60 0 -105.5 -45 t-91.5 -137z" />
<glyph unicode="&#xa1;" horiz-adv-x="514" d="M37 -403l125 710l84 338h65l-35 -338l-124 -710h-115zM250 821l31 176h122l-30 -176h-123z" />
<glyph unicode="&#xa2;" horiz-adv-x="851" d="M111 369q0 31 6 61l71 404q34 188 113.5 272t239.5 94l32 186h111l-33 -186q104 -9 195 -39l-25 -96q-119 35 -235 35q-136 0 -197 -60.5t-90 -226.5l-70 -397q-4 -32 -4 -45q0 -57 36 -81t112 -24q152 0 323 70l19 -96q-116 -58 -246 -70l-33 -190h-110l32 184 q-113 0 -180 53t-67 152z" />
<glyph unicode="&#xa3;" horiz-adv-x="1077" d="M96 0l17 104q139 102 224 219t85 236q0 39 -8 72h-240l12 98h199q-61 122 -61 266q0 174 96.5 261t318.5 87q71 0 158 -13t139 -32l-22 -94q-133 37 -269 37q-171 0 -239 -56.5t-68 -191.5q0 -126 66 -264h401l-16 -98h-359q7 -40 7 -70q0 -231 -267 -459h604l-16 -102 h-762z" />
<glyph unicode="&#xa4;" horiz-adv-x="1093" d="M119 266l133 113q-21 43 -21 94q0 26 7 66l51 295q16 101 65 161l-104 129l86 74l108 -135q82 37 205 37q113 0 180 -45l158 133l68 -82l-156 -131q21 -47 21 -90q0 -19 -7 -54l-51 -292q-21 -114 -63 -166l102 -125l-86 -74l-108 131q-70 -33 -203 -33q-108 0 -176 33 l-144 -121zM344 485q0 -58 38 -84t140 -26q63 0 105 11t67.5 37t39 58.5t22.5 83.5l43 242q8 54 8 72q0 62 -39 90t-137 28q-65 0 -107.5 -11t-68 -37t-38.5 -58t-22 -84l-43 -242q-8 -58 -8 -80z" />
<glyph unicode="&#xa5;" horiz-adv-x="1081" d="M76 289l16 86h359l10 49l-70 217h-254l17 86h211l-187 596h115l246 -784l508 784h133l-396 -596h203l-16 -86h-242l-156 -235l-6 -31h359l-17 -86h-356l-51 -289h-117l51 289h-360z" />
<glyph unicode="&#xa6;" horiz-adv-x="505" d="M246 422h76v-852h-76v852zM246 766v852h76v-852h-76z" />
<glyph unicode="&#xa7;" horiz-adv-x="1073" d="M225 928q0 134 17 233q22 125 84 174t213 49q62 0 139 -15.5t137 -39.5l-22 -90q-158 47 -265 47q-88 0 -123 -28t-49 -105q-18 -108 -18 -233q0 -378 127 -897l-109 -23q-131 502 -131 928zM299 -326l23 90q158 -47 264 -47q88 0 123 28t49 105q18 108 18 234 q0 378 -127 897l109 23q131 -502 131 -928q0 -135 -17 -234q-22 -125 -84 -174t-213 -49q-62 0 -139 15.5t-137 39.5z" />
<glyph unicode="&#xa8;" horiz-adv-x="792" d="M266 1163l27 142l123 4l-25 -142zM614 1163l27 142l123 4l-27 -142z" />
<glyph unicode="&#xa9;" horiz-adv-x="1656" d="M154 682q0 196 82 354.5t243 254t375 95.5t375 -95.5t243 -254t82 -354.5q0 -195 -82 -353t-243 -253.5t-375 -95.5t-375 95.5t-243 253.5t-82 353zM248 682q0 -128 42 -240.5t119 -196t192 -131.5t253 -48t253 48t192 131.5t119 196t42 240.5t-42 240.5t-119 196.5 t-192 132.5t-253 48.5t-253 -48.5t-192 -132.5t-119 -196.5t-42 -240.5zM614 535v294q0 111 54 160t190 49q109 0 205 -28l-12 -76q-99 22 -187 22q-97 0 -130.5 -26t-33.5 -103v-290q0 -77 33.5 -103t130.5 -26q88 0 187 22l12 -76q-96 -28 -205 -28q-136 0 -190 49 t-54 160z" />
<glyph unicode="&#xaa;" horiz-adv-x="790" d="M225 901q0 27 4 47l45 248q15 86 40 133t76.5 71.5t139.5 24.5q120 0 220 -43l-103 -575h-80l11 70q-110 -82 -226 -82q-64 0 -95.5 24t-31.5 82zM311 909q0 -23 10.5 -31t34.5 -8q51 0 115.5 29t118.5 76l63 358q-66 15 -129 15q-80 0 -115 -31.5t-53 -130.5l-41 -242 q-4 -20 -4 -35z" />
<glyph unicode="&#xab;" horiz-adv-x="956" d="M104 500l326 395l84 -74l-281 -332l162 -331l-102 -52zM481 500l326 395l84 -74l-281 -332l162 -331l-102 -52z" />
<glyph unicode="&#xac;" horiz-adv-x="1144" d="M123 449v102h827v-471h-106v369h-721z" />
<glyph unicode="&#xad;" horiz-adv-x="733" d="M143 524l17 101h471l-17 -101h-471z" />
<glyph unicode="&#xae;" horiz-adv-x="980" d="M225 1055q0 158 101.5 264t267.5 106t266.5 -106t100.5 -264q0 -157 -100.5 -264t-266.5 -107t-267.5 107t-101.5 264zM293 1055q0 -132 79.5 -218.5t221.5 -86.5t220.5 86.5t78.5 218.5t-78.5 219.5t-220.5 87.5t-221.5 -87.5t-79.5 -219.5zM485 895v336h129 q54 0 77.5 -21.5t23.5 -64.5v-43q0 -36 -11 -56t-40 -30l92 -121h-56l-86 113h-84v-113h-45zM530 1049h86q30 0 42 10.5t12 34.5v51q0 26 -13 35.5t-43 9.5h-84v-141z" />
<glyph unicode="&#xaf;" horiz-adv-x="782" d="M266 1167l17 90h479l-17 -90h-479z" />
<glyph unicode="&#xb0;" horiz-adv-x="686" d="M236 1087q0 108 68 182t183 74q85 0 132 -48t47 -124q0 -113 -64.5 -184.5t-185.5 -71.5q-85 0 -132.5 48.5t-47.5 123.5zM307 1096q0 -119 121 -119q84 0 126 55t42 131q0 53 -30 86t-89 33q-76 0 -123 -56.5t-47 -129.5z" />
<glyph unicode="&#xb1;" horiz-adv-x="1099" d="M133 0v102h828v-102h-828zM133 610v103h359v366h110v-366h359v-103h-359v-366h-110v366h-359z" />
<glyph unicode="&#xb2;" horiz-adv-x="772" d="M154 500l6 80q86 90 221 227q80 82 151 164q33 38 48.5 65.5t21.5 65.5l8 49q4 24 4 31q0 41 -30.5 57t-100.5 16q-82 0 -180 -26l-14 84q105 30 207 30q101 0 158 -38t57 -113q0 -11 -4 -39l-9 -53q-9 -54 -27.5 -92.5t-74.5 -100.5q-132 -144 -299 -317h324l-15 -90 h-452z" />
<glyph unicode="&#xb3;" horiz-adv-x="796" d="M174 514l21 80q98 -25 186 -25q99 0 135 25.5t47 91.5l15 80q2 10 2 27q0 79 -115 79h-168l14 89h170q64 0 91.5 24t35.5 72l19 104q2 14 2 29q0 38 -29 52.5t-94 14.5q-86 0 -180 -18l-4 80q86 24 194 24q106 0 157.5 -40t51.5 -111q0 -13 -4 -41l-16 -92 q-9 -55 -33.5 -87t-79.5 -54q84 -32 84 -117q0 -11 -4 -35l-15 -80q-21 -112 -81.5 -157.5t-200.5 -45.5q-96 0 -201 31z" />
<glyph unicode="&#xb4;" horiz-adv-x="598" d="M256 1219q144 69 287 165l49 -79q-126 -88 -291 -166z" />
<glyph unicode="&#xb5;" d="M0 -403l104 593l142 799l119 17l-146 -822q-4 -24 -4 -39q1 -32 21.5 -45.5t62.5 -13.5q73 0 196.5 52.5t229.5 119.5l129 731l119 17l-178 -1006h-99l17 145q-93 -65 -218.5 -115t-215.5 -50q-65 0 -93 22l-71 -405h-115z" />
<glyph unicode="&#xb6;" horiz-adv-x="999" d="M199 874q0 221 134.5 355.5t354.5 134.5l-145 -823q-155 1 -249.5 93.5t-94.5 239.5zM346 -350q103 88 152.5 135.5t61.5 66t15 39.5l259 1473h110l-262 -1485q-5 -32 -10.5 -47.5t-36.5 -50t-78.5 -75.5t-153.5 -130z" />
<glyph unicode="&#xb7;" horiz-adv-x="491" d="M195 567l30 176h123l-31 -176h-122z" />
<glyph unicode="&#xb8;" horiz-adv-x="632" d="M10 -395l23 71q68 -22 129 -22q133 0 133 88q0 53 -88 53q-55 0 -92 -6l-13 29l62 182h82l-47 -145q30 6 61 6q57 0 92 -29t35 -80q0 -84 -58 -130t-165 -46q-82 0 -154 29z" />
<glyph unicode="&#xb9;" horiz-adv-x="694" d="M256 1198l246 125h80l-148 -827h-98l125 710l-174 -80z" />
<glyph unicode="&#xba;" horiz-adv-x="790" d="M246 961q0 17 4 53l35 194q20 109 80.5 163t189.5 54q94 0 149.5 -49t55.5 -133q0 -15 -4 -47l-33 -186q-19 -104 -80.5 -159.5t-193.5 -55.5q-104 0 -153.5 44.5t-49.5 121.5zM326 969q0 -51 31 -75t102 -24q154 0 178 142l35 196q4 28 4 37q0 103 -131 103 q-83 0 -125.5 -34t-57.5 -116l-32 -188q-4 -28 -4 -41z" />
<glyph unicode="&#xbb;" horiz-adv-x="956" d="M72 190l280 332l-162 332l103 51l188 -393l-325 -395zM449 190l280 332l-162 332l103 51l188 -393l-326 -395z" />
<glyph unicode="&#xbc;" horiz-adv-x="1689" d="M256 1198l246 125h80l-148 -827h-98l125 710l-174 -80zM381 -20l782 1396l70 -39l-780 -1400zM868 186l11 97l444 544h129l-98 -555h121l-15 -86h-121l-32 -186h-95l33 186h-377zM981 272h279l79 457z" />
<glyph unicode="&#xbd;" horiz-adv-x="1703" d="M256 1198l246 125h80l-148 -827h-98l125 710l-174 -80zM381 -20l782 1396l70 -39l-780 -1400zM993 0l6 80q55 58 222 227q80 82 151 164q33 38 48.5 65.5t21.5 65.5l8 49q4 24 4 31q0 42 -30.5 58t-100.5 16q-78 0 -180 -27l-15 84q108 31 207 31q101 0 158 -38.5 t57 -113.5q0 -11 -4 -39l-8 -53q-9 -53 -27.5 -91.5t-74.5 -100.5q-148 -162 -299 -318h323l-14 -90h-453z" />
<glyph unicode="&#xbe;" horiz-adv-x="1763" d="M174 514l21 80q98 -25 186 -25q99 0 135 25.5t47 91.5l15 80q2 10 2 27q0 79 -115 79h-168l14 89h170q64 0 91.5 24t35.5 72l19 104q2 14 2 29q0 38 -29 52.5t-94 14.5q-86 0 -180 -18l-4 80q86 24 194 24q106 0 157.5 -40t51.5 -111q0 -13 -4 -41l-16 -92 q-9 -55 -33.5 -87t-79.5 -54q84 -32 84 -117q0 -11 -4 -35l-15 -80q-21 -112 -81.5 -157.5t-200.5 -45.5q-96 0 -201 31zM455 -20l782 1396l70 -39l-781 -1400zM942 186l10 97l445 544h129l-99 -555h121l-14 -86h-121l-33 -186h-94l33 186h-377zM1055 272h278l80 457z" />
<glyph unicode="&#xbf;" horiz-adv-x="944" d="M45 -195q0 66 14 140q12 69 21 110t25 81.5t29.5 62t46 52.5t61.5 52.5t88 63.5q96 68 241 168l58 -89q-115 -77 -256 -174q-75 -52 -108.5 -88t-53 -87t-37.5 -154q-16 -91 -16 -138q0 -76 47.5 -101.5t181.5 -25.5q118 0 266 31l13 -100q-149 -33 -301 -33 q-177 0 -248.5 53.5t-71.5 175.5zM555 821l31 176h123l-31 -176h-123z" />
<glyph unicode="&#xc0;" horiz-adv-x="1261" d="M-2 0l700 1364h176l230 -1364h-119l-59 360h-617l-190 -360h-121zM362 463h543l-125 840zM580 1626l61 80q105 -83 213 -150l-51 -77q-107 60 -223 147z" />
<glyph unicode="&#xc1;" horiz-adv-x="1261" d="M-2 0l700 1364h176l230 -1364h-119l-59 360h-617l-190 -360h-121zM362 463h543l-125 840zM739 1552q116 73 213 150l60 -80q-122 -91 -221 -147z" />
<glyph unicode="&#xc2;" horiz-adv-x="1261" d="M-2 0l700 1364h176l230 -1364h-119l-59 360h-617l-190 -360h-121zM362 463h543l-125 840zM569 1556q102 56 250 150q136 -97 223 -156l-43 -71q-102 54 -190 110q-43 -24 -110 -60.5t-91 -49.5z" />
<glyph unicode="&#xc3;" horiz-adv-x="1261" d="M-2 0l700 1364h176l230 -1364h-119l-59 360h-617l-190 -360h-121zM362 463h543l-125 840zM539 1548q72 109 180 109q40 0 107.5 -36t101.5 -36q29 0 50 10.5t52 38.5l49 -49q-33 -48 -68.5 -71t-86.5 -23q-44 0 -118 36t-101 36q-23 0 -46 -10.5t-37 -21t-38 -32.5z" />
<glyph unicode="&#xc4;" horiz-adv-x="1261" d="M-2 0l700 1364h176l230 -1364h-119l-59 360h-617l-190 -360h-121zM362 463h543l-125 840zM563 1503l23 123h131l-23 -123h-131zM920 1503l22 123h131l-22 -123h-131z" />
<glyph unicode="&#xc5;" horiz-adv-x="1261" d="M-2 0l700 1364h176l230 -1364h-119l-59 360h-617l-190 -360h-121zM362 463h543l-125 840zM702 1563q0 68 40.5 108.5t111.5 40.5q52 0 80.5 -27t28.5 -69q0 -68 -38.5 -112t-113.5 -44q-52 0 -80.5 28t-28.5 75zM768 1571q0 -53 51 -53q38 0 57 25.5t19 64.5 q0 26 -11 37.5t-38 11.5q-34 0 -56 -24t-22 -62z" />
<glyph unicode="&#xc6;" horiz-adv-x="1710" d="M-2 0l700 1364h1037l-19 -104h-825l84 -512h606l-18 -105h-570l90 -539h430l-16 -104h-512l-57 360h-619l-190 -360h-121zM362 463h545l-127 840z" />
<glyph unicode="&#xc7;" horiz-adv-x="1038" d="M117 272q0 41 10 103l109 614q37 210 156.5 302.5t363.5 92.5q174 0 317 -38l-20 -101q-157 35 -305 35q-187 0 -278 -68.5t-120 -234.5l-106 -600q-8 -44 -8 -88q0 -107 70 -156t231 -49q132 0 313 29l4 -101q-155 -28 -326 -32l-41 -125q30 6 62 6q57 0 92 -29t35 -80 q0 -84 -58 -130t-165 -46q-81 0 -154 29l23 71q68 -22 129 -22q133 0 133 88q0 53 -88 53q-56 0 -93 -6l-12 29l55 164q-172 12 -250.5 85t-78.5 205z" />
<glyph unicode="&#xc8;" horiz-adv-x="1073" d="M92 0l240 1364h766l-19 -104h-647l-90 -512h602l-18 -105h-602l-97 -539h650l-17 -104h-768zM524 1626l62 80q105 -83 213 -150l-51 -77q-111 62 -224 147z" />
<glyph unicode="&#xc9;" horiz-adv-x="1073" d="M92 0l240 1364h766l-19 -104h-647l-90 -512h602l-18 -105h-602l-97 -539h650l-17 -104h-768zM645 1552q116 73 213 150l60 -80q-119 -89 -222 -147z" />
<glyph unicode="&#xca;" horiz-adv-x="1073" d="M92 0l240 1364h766l-19 -104h-647l-90 -512h602l-18 -105h-602l-97 -539h650l-17 -104h-768zM489 1556q102 56 250 150q120 -86 224 -156l-43 -71q-108 58 -191 110q-43 -24 -110 -60.5t-91 -49.5z" />
<glyph unicode="&#xcb;" horiz-adv-x="1073" d="M92 0l240 1364h766l-19 -104h-647l-90 -512h602l-18 -105h-602l-97 -539h650l-17 -104h-768zM483 1503l23 123h131l-23 -123h-131zM840 1503l22 123h131l-22 -123h-131z" />
<glyph unicode="&#xcc;" horiz-adv-x="505" d="M102 0l240 1364h117l-240 -1364h-117zM209 1626l61 80q105 -83 213 -150l-51 -77q-107 60 -223 147z" />
<glyph unicode="&#xcd;" horiz-adv-x="505" d="M102 0l240 1364h117l-240 -1364h-117zM356 1552q116 73 213 150l60 -80q-122 -91 -221 -147z" />
<glyph unicode="&#xce;" horiz-adv-x="505" d="M102 0l240 1364h117l-240 -1364h-117zM193 1556q95 52 249 150q120 -86 224 -156l-43 -71q-108 58 -191 110q-43 -24 -110 -60.5t-91 -49.5z" />
<glyph unicode="&#xcf;" horiz-adv-x="505" d="M102 0l240 1364h117l-240 -1364h-117zM186 1503l23 123h131l-23 -123h-131zM543 1503l22 123h131l-22 -123h-131z" />
<glyph unicode="&#xd0;" horiz-adv-x="1241" d="M78 645l18 98h158l108 621h445q190 0 278.5 -80.5t88.5 -224.5q0 -39 -11 -107l-100 -571q-18 -104 -48.5 -172t-85 -117t-138.5 -70.5t-207 -21.5h-461l113 645h-158zM258 104h334q94 0 158 17.5t103.5 56t61 89.5t35.5 130l99 557q10 62 10 103q0 104 -61 153.5 t-201 49.5h-334l-92 -517h288l-18 -98h-287z" />
<glyph unicode="&#xd1;" horiz-adv-x="1310" d="M92 0l240 1364h176l430 -1258l221 1258h115l-240 -1364h-176l-430 1255l-221 -1255h-115zM573 1548q30 46 76.5 77.5t104.5 31.5q40 0 107.5 -36t101.5 -36q29 0 50 10.5t52 38.5l49 -49q-33 -47 -69 -70.5t-87 -23.5q-44 0 -118 36t-101 36q-23 0 -46 -10.5t-37 -21 t-38 -32.5z" />
<glyph unicode="&#xd2;" horiz-adv-x="1257" d="M123 301q0 52 8 96l100 566q40 227 164 324t381 97q201 0 307.5 -96t106.5 -246q0 -25 -8 -79l-103 -574q-17 -96 -52 -167t-97.5 -127.5t-162 -85.5t-235.5 -29q-213 0 -311 86t-98 235zM240 307q0 -111 70.5 -167t240.5 -56q101 0 174.5 20t121.5 60.5t75 95t41 129.5 l102 576q8 39 8 84q0 231 -311 231q-194 0 -290 -75t-126 -242l-98 -557q-8 -47 -8 -99zM563 1626l62 80q105 -83 213 -150l-52 -77q-107 60 -223 147z" />
<glyph unicode="&#xd3;" horiz-adv-x="1257" d="M123 301q0 52 8 96l100 566q40 227 164 324t381 97q201 0 307.5 -96t106.5 -246q0 -25 -8 -79l-103 -574q-17 -96 -52 -167t-97.5 -127.5t-162 -85.5t-235.5 -29q-213 0 -311 86t-98 235zM240 307q0 -111 70.5 -167t240.5 -56q101 0 174.5 20t121.5 60.5t75 95t41 129.5 l102 576q8 39 8 84q0 231 -311 231q-194 0 -290 -75t-126 -242l-98 -557q-8 -47 -8 -99zM733 1552q116 73 213 150l60 -80q-119 -89 -222 -147z" />
<glyph unicode="&#xd4;" horiz-adv-x="1257" d="M123 301q0 52 8 96l100 566q40 227 164 324t381 97q201 0 307.5 -96t106.5 -246q0 -25 -8 -79l-103 -574q-17 -96 -52 -167t-97.5 -127.5t-162 -85.5t-235.5 -29q-213 0 -311 86t-98 235zM240 307q0 -111 70.5 -167t240.5 -56q101 0 174.5 20t121.5 60.5t75 95t41 129.5 l102 576q8 39 8 84q0 231 -311 231q-194 0 -290 -75t-126 -242l-98 -557q-8 -47 -8 -99zM561 1556q102 56 250 150q136 -97 223 -156l-43 -71q-102 54 -190 110q-43 -24 -110 -60.5t-91 -49.5z" />
<glyph unicode="&#xd5;" horiz-adv-x="1257" d="M123 301q0 52 8 96l100 566q40 227 164 324t381 97q201 0 307.5 -96t106.5 -246q0 -25 -8 -79l-103 -574q-17 -96 -52 -167t-97.5 -127.5t-162 -85.5t-235.5 -29q-213 0 -311 86t-98 235zM240 307q0 -111 70.5 -167t240.5 -56q101 0 174.5 20t121.5 60.5t75 95t41 129.5 l102 576q8 39 8 84q0 231 -311 231q-194 0 -290 -75t-126 -242l-98 -557q-8 -47 -8 -99zM524 1548q30 46 76.5 77.5t104.5 31.5q40 0 107 -36t101 -36q29 0 50.5 10.5t52.5 38.5l49 -49q-33 -47 -69 -70.5t-87 -23.5q-44 0 -118 36t-101 36q-23 0 -46 -10.5t-37 -21 t-38 -32.5z" />
<glyph unicode="&#xd6;" horiz-adv-x="1257" d="M123 301q0 52 8 96l100 566q40 227 164 324t381 97q201 0 307.5 -96t106.5 -246q0 -25 -8 -79l-103 -574q-17 -96 -52 -167t-97.5 -127.5t-162 -85.5t-235.5 -29q-213 0 -311 86t-98 235zM240 307q0 -111 70.5 -167t240.5 -56q101 0 174.5 20t121.5 60.5t75 95t41 129.5 l102 576q8 39 8 84q0 231 -311 231q-194 0 -290 -75t-126 -242l-98 -557q-8 -47 -8 -99zM553 1503l22 123h132l-23 -123h-131zM909 1503l23 123h131l-23 -123h-131z" />
<glyph unicode="&#xd7;" horiz-adv-x="1107" d="M164 174l321 326l-321 325l72 72l323 -324l324 324l71 -72l-321 -325l321 -326l-71 -72l-324 324l-323 -324z" />
<glyph unicode="&#xd8;" horiz-adv-x="1257" d="M72 -76l123 166q-72 78 -72 211q0 52 8 96l100 566q40 227 164 324t381 97q186 0 301 -90l142 193l63 -47l-152 -205q60 -85 60 -193q0 -25 -8 -79l-103 -574q-17 -96 -52 -167t-97.5 -127.5t-162 -85.5t-235.5 -29q-177 0 -276 61l-121 -164zM240 307q0 -71 26 -119 l748 1020q-78 72 -252 72q-194 0 -290 -75t-126 -242l-98 -557q-8 -47 -8 -99zM322 131q74 -47 229 -47q101 0 174.5 20t121.5 60.5t75 95t41 129.5l102 576q8 39 8 84q0 41 -14 88z" />
<glyph unicode="&#xd9;" horiz-adv-x="1286" d="M143 307q0 29 9 90l170 967h116l-172 -977q-8 -58 -8 -82q0 -112 73.5 -166.5t233.5 -54.5q187 0 284.5 80t123.5 231l170 969h117l-173 -981q-13 -73 -36 -131t-65 -110t-100.5 -87t-144 -55t-194.5 -20q-206 0 -305 88.5t-99 238.5zM612 1626l62 80q105 -83 213 -150 l-51 -77q-111 62 -224 147z" />
<glyph unicode="&#xda;" horiz-adv-x="1286" d="M143 307q0 29 9 90l170 967h116l-172 -977q-8 -58 -8 -82q0 -112 73.5 -166.5t233.5 -54.5q187 0 284.5 80t123.5 231l170 969h117l-173 -981q-13 -73 -36 -131t-65 -110t-100.5 -87t-144 -55t-194.5 -20q-206 0 -305 88.5t-99 238.5zM729 1552q116 73 213 150l59 -80 q-122 -91 -221 -147z" />
<glyph unicode="&#xdb;" horiz-adv-x="1286" d="M143 307q0 29 9 90l170 967h116l-172 -977q-8 -58 -8 -82q0 -112 73.5 -166.5t233.5 -54.5q187 0 284.5 80t123.5 231l170 969h117l-173 -981q-13 -73 -36 -131t-65 -110t-100.5 -87t-144 -55t-194.5 -20q-206 0 -305 88.5t-99 238.5zM586 1556q102 56 250 150 q136 -97 223 -156l-43 -71q-108 58 -191 110q-43 -25 -111 -61.5t-89 -48.5z" />
<glyph unicode="&#xdc;" horiz-adv-x="1286" d="M143 307q0 29 9 90l170 967h116l-172 -977q-8 -58 -8 -82q0 -112 73.5 -166.5t233.5 -54.5q187 0 284.5 80t123.5 231l170 969h117l-173 -981q-13 -73 -36 -131t-65 -110t-100.5 -87t-144 -55t-194.5 -20q-206 0 -305 88.5t-99 238.5zM555 1503l23 123h131l-23 -123h-131 zM911 1503l23 123h131l-23 -123h-131z" />
<glyph unicode="&#xdd;" horiz-adv-x="1071" d="M166 1364h115l258 -825l534 825h133l-633 -958l-71 -406h-117l76 424zM623 1552q116 73 213 150l59 -80q-122 -91 -221 -147z" />
<glyph unicode="&#xde;" horiz-adv-x="1124" d="M92 0l240 1364h117l-43 -250h344q323 0 323 -242q0 -23 -8 -77l-37 -209q-12 -66 -29 -112t-48 -86.5t-76.5 -64.5t-114 -37.5t-160.5 -13.5h-342l-49 -272h-117zM276 377h345q142 0 205 45t85 164l39 219q6 30 6 57q0 81 -51 114.5t-172 33.5h-346z" />
<glyph unicode="&#xdf;" horiz-adv-x="1202" d="M-61 -350q64 56 92.5 108.5t48.5 159.5l207 1174q33 188 129.5 271t290.5 83q148 0 228.5 -70t80.5 -178q0 -87 -27 -155.5t-106 -176.5q-59 -80 -83 -127.5t-24 -93.5q0 -28 22.5 -57t102.5 -86q87 -62 116.5 -100t29.5 -93q0 -87 -13.5 -144t-50.5 -101t-106 -64 t-177 -20q-120 0 -204 36l24 97q41 -13 102.5 -22t98.5 -9q117 0 162 40.5t45 162.5q0 39 -26.5 68.5t-108.5 88.5q-74 54 -102.5 99t-28.5 96q0 63 24 119t74 125q90 122 115.5 181.5t25.5 129.5q0 73 -54 114.5t-159 41.5q-127 0 -195.5 -60.5t-95.5 -214.5l-204 -1167 q-21 -124 -62 -193t-129 -137z" />
<glyph unicode="&#xe0;" horiz-adv-x="1021" d="M84 147q0 33 6 74l76 428q36 199 131 284t293 85q164 0 344 -66l-168 -952h-104l20 145q-194 -165 -401 -165q-99 0 -148 39t-49 128zM199 162q0 -45 22 -62.5t70 -17.5q91 0 200 54t209 143l107 604q-110 32 -234 32q-140 0 -204 -61t-93 -225l-71 -408q-6 -37 -6 -59z M465 1300l63 78q83 -72 217 -164l-55 -75q-147 90 -225 161z" />
<glyph unicode="&#xe1;" horiz-adv-x="1021" d="M84 147q0 33 6 74l76 428q36 199 131 284t293 85q164 0 344 -66l-168 -952h-104l20 145q-194 -165 -401 -165q-99 0 -148 39t-49 128zM199 162q0 -45 22 -62.5t70 -17.5q91 0 200 54t209 143l107 604q-110 32 -234 32q-140 0 -204 -61t-93 -225l-71 -408q-6 -37 -6 -59z M539 1219q140 67 286 165l49 -79q-128 -90 -290 -166z" />
<glyph unicode="&#xe2;" horiz-adv-x="1021" d="M84 147q0 33 6 74l76 428q36 199 131 284t293 85q164 0 344 -66l-168 -952h-104l20 145q-194 -165 -401 -165q-99 0 -148 39t-49 128zM199 162q0 -45 22 -62.5t70 -17.5q91 0 200 54t209 143l107 604q-110 32 -234 32q-140 0 -204 -61t-93 -225l-71 -408q-6 -37 -6 -59z M393 1194q133 78 269 176q75 -73 229 -182l-47 -70q-111 67 -193 131q-34 -23 -215 -131z" />
<glyph unicode="&#xe3;" horiz-adv-x="1021" d="M84 147q0 33 6 74l76 428q36 199 131 284t293 85q164 0 344 -66l-168 -952h-104l20 145q-194 -165 -401 -165q-99 0 -148 39t-49 128zM199 162q0 -45 22 -62.5t70 -17.5q91 0 200 54t209 143l107 604q-110 32 -234 32q-140 0 -204 -61t-93 -225l-71 -408q-6 -37 -6 -59z M377 1200q72 109 180 109q40 0 107.5 -36t101.5 -36q29 0 50 10.5t52 38.5l50 -49q-33 -47 -69 -70.5t-87 -23.5q-44 0 -118 35.5t-101 35.5q-23 0 -46 -10t-37 -21t-38 -32z" />
<glyph unicode="&#xe4;" horiz-adv-x="1021" d="M84 147q0 33 6 74l76 428q36 199 131 284t293 85q164 0 344 -66l-168 -952h-104l20 145q-194 -165 -401 -165q-99 0 -148 39t-49 128zM199 162q0 -45 22 -62.5t70 -17.5q91 0 200 54t209 143l107 604q-110 32 -234 32q-140 0 -204 -61t-93 -225l-71 -408q-6 -37 -6 -59z M414 1163l26 142l123 4l-24 -142zM762 1163l26 142l123 4l-26 -142z" />
<glyph unicode="&#xe5;" horiz-adv-x="1021" d="M84 147q0 33 6 74l76 428q36 199 131 284t293 85q164 0 344 -66l-168 -952h-104l20 145q-194 -165 -401 -165q-99 0 -148 39t-49 128zM199 162q0 -45 22 -62.5t70 -17.5q91 0 200 54t209 143l107 604q-110 32 -234 32q-140 0 -204 -61t-93 -225l-71 -408q-6 -37 -6 -59z M528 1214q0 69 41.5 111.5t114.5 42.5q52 0 82.5 -28.5t30.5 -71.5q0 -67 -41 -113.5t-115 -46.5q-54 0 -83.5 29.5t-29.5 76.5zM594 1223q0 -58 55 -58q38 0 59 28t21 67q0 53 -53 53q-34 0 -58 -26t-24 -64z" />
<glyph unicode="&#xe6;" horiz-adv-x="1511" d="M55 180q0 100 22.5 168t68.5 106t107 54t148 16h297l35 199q6 30 6 53q0 75 -51.5 107t-159.5 32q-155 0 -299 -32l-14 92q65 18 158 30.5t168 12.5q241 0 284 -160q115 160 332 160q134 0 213.5 -63.5t79.5 -174.5q0 -77 -26.5 -133.5t-75.5 -95.5t-131 -64.5 t-181.5 -39.5t-238.5 -23l-31 -170q-4 -32 -4 -49q0 -63 41.5 -94t134.5 -31q159 0 373 88l28 -88q-195 -100 -415 -100q-196 0 -250 108q-189 -108 -404 -108q-105 0 -160 51.5t-55 148.5zM170 178q0 -47 32 -71.5t111 -24.5q73 0 163.5 26t174.5 70q-6 37 11 135l18 109 h-291q-62 0 -100.5 -9.5t-67 -36t-40 -74t-11.5 -124.5zM813 524q158 6 263 25t162 53.5t79 77.5t22 104q0 66 -49 101t-143 35q-133 0 -209 -71t-104 -218z" />
<glyph unicode="&#xe7;" horiz-adv-x="817" d="M78 184q0 32 6 62l72 403q37 204 127.5 286.5t281.5 82.5q59 0 130.5 -12t117.5 -29l-25 -96q-115 34 -235 34q-137 0 -197.5 -60t-89.5 -226l-69 -398q-4 -32 -4 -45q0 -57 35.5 -80.5t111.5 -23.5q153 0 324 70l18 -97q-142 -62 -293 -73l-41 -127q30 6 62 6 q57 0 92 -29t35 -80q0 -83 -58.5 -129.5t-165.5 -46.5q-81 0 -153 29l22 71q68 -22 129 -22q133 0 133 88q0 53 -88 53q-54 0 -92 -6l-12 29l53 162q-105 5 -166 57t-61 147z" />
<glyph unicode="&#xe8;" horiz-adv-x="907" d="M84 205q0 40 10 98l60 336q34 193 138 286t294 93q123 0 193.5 -60.5t70.5 -171.5q0 -119 -86.5 -191t-292.5 -130l-244 -68l-24 -137q-4 -36 -4 -53q0 -67 36 -97t136 -30q145 0 352 96l29 -88q-207 -108 -396 -108q-139 0 -205.5 55.5t-66.5 169.5zM246 504 q38 10 231 61q138 36 200 89.5t62 133.5q0 132 -164 132q-133 0 -207 -70t-100 -219zM350 1300l64 78q83 -72 217 -164l-56 -75q-147 90 -225 161z" />
<glyph unicode="&#xe9;" horiz-adv-x="907" d="M84 205q0 40 10 98l60 336q34 193 138 286t294 93q123 0 193.5 -60.5t70.5 -171.5q0 -119 -86.5 -191t-292.5 -130l-244 -68l-24 -137q-4 -36 -4 -53q0 -67 36 -97t136 -30q145 0 352 96l29 -88q-207 -108 -396 -108q-139 0 -205.5 55.5t-66.5 169.5zM246 504 q38 10 231 61q138 36 200 89.5t62 133.5q0 132 -164 132q-133 0 -207 -70t-100 -219zM483 1219q144 69 287 165l49 -79q-126 -88 -291 -166z" />
<glyph unicode="&#xea;" horiz-adv-x="907" d="M84 205q0 40 10 98l60 336q34 193 138 286t294 93q123 0 193.5 -60.5t70.5 -171.5q0 -119 -86.5 -191t-292.5 -130l-244 -68l-24 -137q-4 -36 -4 -53q0 -67 36 -97t136 -30q145 0 352 96l29 -88q-207 -108 -396 -108q-139 0 -205.5 55.5t-66.5 169.5zM246 504 q38 10 231 61q138 36 200 89.5t62 133.5q0 132 -164 132q-133 0 -207 -70t-100 -219zM338 1194q128 75 268 176q72 -70 230 -182l-48 -70q-106 64 -192 131q-37 -25 -68.5 -44t-78.5 -46.5t-68 -40.5z" />
<glyph unicode="&#xeb;" horiz-adv-x="907" d="M84 205q0 40 10 98l60 336q34 193 138 286t294 93q123 0 193.5 -60.5t70.5 -171.5q0 -119 -86.5 -191t-292.5 -130l-244 -68l-24 -137q-4 -36 -4 -53q0 -67 36 -97t136 -30q145 0 352 96l29 -88q-207 -108 -396 -108q-139 0 -205.5 55.5t-66.5 169.5zM246 504 q38 10 231 61q138 36 200 89.5t62 133.5q0 132 -164 132q-133 0 -207 -70t-100 -219zM360 1163l27 142l123 4l-25 -142zM709 1163l26 142l123 4l-27 -142z" />
<glyph unicode="&#xec;" horiz-adv-x="462" d="M82 0l174 989l117 17l-176 -1006h-115zM106 1300l64 78q83 -72 217 -164l-55 -75q-150 92 -226 161z" />
<glyph unicode="&#xed;" horiz-adv-x="462" d="M82 0l174 989l117 17l-176 -1006h-115zM260 1219q144 69 287 165l49 -79q-126 -88 -291 -166z" />
<glyph unicode="&#xee;" horiz-adv-x="462" d="M82 0l174 989l117 17l-176 -1006h-115zM94 1194q128 75 268 176q72 -70 230 -182l-47 -70q-111 67 -193 131q-37 -25 -68.5 -44t-78.5 -46.5t-68 -40.5z" />
<glyph unicode="&#xef;" horiz-adv-x="462" d="M82 0l174 989l117 17l-176 -1006h-115zM113 1163l26 142l123 4l-24 -142zM461 1163l26 142l123 4l-26 -142z" />
<glyph unicode="&#xf0;" horiz-adv-x="1044" d="M102 254q0 32 9 82l47 268q33 186 133.5 264t277.5 78q161 0 293 -53q4 28 4 57q0 152 -118 240l-197 -133l-43 63l176 121q-88 64 -221 109l39 86q139 -44 272 -133l150 104l39 -68l-129 -88q71 -66 105 -142.5t34 -184.5q0 -49 -15 -133l-79 -453q-12 -66 -30.5 -116.5 t-53 -97.5t-82.5 -77.5t-120 -48.5t-165 -18q-165 0 -245.5 73.5t-80.5 200.5zM215 264q0 -96 49.5 -139t181.5 -43q143 0 219.5 63t98.5 191l80 452q-55 26 -135.5 41t-141.5 15q-139 0 -207.5 -61t-93.5 -203l-43 -242q-8 -54 -8 -74z" />
<glyph unicode="&#xf1;" d="M82 0l174 989l100 17l-16 -154q83 58 216 112t218 54q89 0 132.5 -43t43.5 -121q0 -28 -6 -63l-139 -791h-115l144 811q4 24 4 33q0 36 -20 51.5t-64 15.5q-73 0 -196.5 -52.5t-229.5 -119.5l-131 -739h-115zM375 1200q72 109 180 109q40 0 107.5 -36t101.5 -36 q29 0 50 10.5t52 38.5l49 -49q-33 -48 -68.5 -71t-86.5 -23q-44 0 -118 35.5t-101 35.5q-23 0 -46 -10t-37 -21t-38 -32z" />
<glyph unicode="&#xf2;" horiz-adv-x="1015" d="M84 258q0 49 8 90l53 303q15 86 45.5 150.5t82.5 114.5t132.5 76t188.5 26q161 0 246.5 -76.5t85.5 -204.5q0 -21 -8 -75l-58 -326q-31 -175 -136 -265.5t-312 -90.5q-169 0 -248.5 75t-79.5 203zM199 262q0 -90 54 -135t177 -45q137 0 214.5 63.5t100.5 192.5l58 324 q6 37 6 69q0 93 -57 138.5t-177 45.5q-139 0 -215 -65.5t-100 -198.5l-55 -313q-6 -41 -6 -76zM410 1300l63 78q83 -72 217 -164l-55 -75q-147 90 -225 161z" />
<glyph unicode="&#xf3;" horiz-adv-x="1015" d="M84 258q0 49 8 90l53 303q15 86 45.5 150.5t82.5 114.5t132.5 76t188.5 26q161 0 246.5 -76.5t85.5 -204.5q0 -21 -8 -75l-58 -326q-31 -175 -136 -265.5t-312 -90.5q-169 0 -248.5 75t-79.5 203zM199 262q0 -90 54 -135t177 -45q137 0 214.5 63.5t100.5 192.5l58 324 q6 37 6 69q0 93 -57 138.5t-177 45.5q-139 0 -215 -65.5t-100 -198.5l-55 -313q-6 -41 -6 -76zM518 1219q144 69 287 165l49 -79q-126 -88 -291 -166z" />
<glyph unicode="&#xf4;" horiz-adv-x="1015" d="M84 258q0 49 8 90l53 303q15 86 45.5 150.5t82.5 114.5t132.5 76t188.5 26q161 0 246.5 -76.5t85.5 -204.5q0 -21 -8 -75l-58 -326q-31 -175 -136 -265.5t-312 -90.5q-169 0 -248.5 75t-79.5 203zM199 262q0 -90 54 -135t177 -45q137 0 214.5 63.5t100.5 192.5l58 324 q6 37 6 69q0 93 -57 138.5t-177 45.5q-139 0 -215 -65.5t-100 -198.5l-55 -313q-6 -41 -6 -76zM362 1194q133 78 269 176q75 -73 229 -182l-47 -70q-106 64 -192 131q-34 -23 -215 -131z" />
<glyph unicode="&#xf5;" horiz-adv-x="1015" d="M84 258q0 49 8 90l53 303q15 86 45.5 150.5t82.5 114.5t132.5 76t188.5 26q161 0 246.5 -76.5t85.5 -204.5q0 -21 -8 -75l-58 -326q-31 -175 -136 -265.5t-312 -90.5q-169 0 -248.5 75t-79.5 203zM199 262q0 -90 54 -135t177 -45q137 0 214.5 63.5t100.5 192.5l58 324 q6 37 6 69q0 93 -57 138.5t-177 45.5q-139 0 -215 -65.5t-100 -198.5l-55 -313q-6 -41 -6 -76zM356 1200q30 46 76.5 77.5t104.5 31.5q40 0 107 -36t101 -36q29 0 50.5 10.5t52.5 38.5l49 -49q-33 -47 -69 -70.5t-87 -23.5q-44 0 -118 35.5t-101 35.5q-23 0 -46 -10t-37 -21 t-38 -32z" />
<glyph unicode="&#xf6;" horiz-adv-x="1015" d="M84 258q0 49 8 90l53 303q15 86 45.5 150.5t82.5 114.5t132.5 76t188.5 26q161 0 246.5 -76.5t85.5 -204.5q0 -21 -8 -75l-58 -326q-31 -175 -136 -265.5t-312 -90.5q-169 0 -248.5 75t-79.5 203zM199 262q0 -90 54 -135t177 -45q137 0 214.5 63.5t100.5 192.5l58 324 q6 37 6 69q0 93 -57 138.5t-177 45.5q-139 0 -215 -65.5t-100 -198.5l-55 -313q-6 -41 -6 -76zM389 1163l27 142l123 4l-25 -142zM737 1163l27 142l123 4l-27 -142z" />
<glyph unicode="&#xf7;" horiz-adv-x="1093" d="M133 446v103h828v-103h-828zM485 90v152h123v-152h-123zM485 754v151h123v-151h-123z" />
<glyph unicode="&#xf8;" horiz-adv-x="1015" d="M25 -57l110 141q-51 68 -51 174q0 49 8 90l53 303q15 86 45.5 150.5t82.5 114.5t132.5 76t188.5 26q138 0 223 -57l109 139l59 -45l-115 -146q56 -71 56 -172q0 -21 -8 -75l-58 -326q-31 -175 -136 -265.5t-312 -90.5q-142 0 -222 55l-106 -137zM199 262q0 -46 12 -80 l537 690q-55 43 -173 43q-139 0 -215 -65.5t-100 -198.5l-55 -313q-6 -41 -6 -76zM258 123q56 -41 172 -41q137 0 214.5 63.5t100.5 192.5l58 324q6 37 6 69q0 48 -14 80z" />
<glyph unicode="&#xf9;" d="M102 143q0 24 7 64l137 782l119 17l-146 -820q-4 -24 -4 -36q0 -64 84 -64q73 0 196.5 52.5t229.5 119.5l129 731l119 17l-178 -1006h-99l17 145q-93 -65 -218.5 -115t-215.5 -50t-133.5 42.5t-43.5 120.5zM442 1300l64 78q83 -72 217 -164l-55 -75q-150 92 -226 161z " />
<glyph unicode="&#xfa;" d="M102 143q0 24 7 64l137 782l119 17l-146 -820q-4 -24 -4 -36q0 -64 84 -64q73 0 196.5 52.5t229.5 119.5l129 731l119 17l-178 -1006h-99l17 145q-93 -65 -218.5 -115t-215.5 -50t-133.5 42.5t-43.5 120.5zM522 1219q144 69 287 165l49 -79q-126 -88 -291 -166z" />
<glyph unicode="&#xfb;" d="M102 143q0 24 7 64l137 782l119 17l-146 -820q-4 -24 -4 -36q0 -64 84 -64q73 0 196.5 52.5t229.5 119.5l129 731l119 17l-178 -1006h-99l17 145q-93 -65 -218.5 -115t-215.5 -50t-133.5 42.5t-43.5 120.5zM403 1194q133 78 269 176q75 -73 229 -182l-47 -70 q-106 64 -192 131q-26 -18 -216 -131z" />
<glyph unicode="&#xfc;" d="M102 143q0 24 7 64l137 782l119 17l-146 -820q-4 -24 -4 -36q0 -64 84 -64q73 0 196.5 52.5t229.5 119.5l129 731l119 17l-178 -1006h-99l17 145q-93 -65 -218.5 -115t-215.5 -50t-133.5 42.5t-43.5 120.5zM401 1163l27 142l123 4l-25 -142zM750 1163l26 142l123 4 l-27 -142z" />
<glyph unicode="&#xfd;" horiz-adv-x="856" d="M-29 -332q125 45 207.5 119t159.5 213h-57l-164 989l110 17l150 -930l317 629q45 86 45 159q0 43 -24 125l116 17q21 -78 21 -138q0 -90 -37 -168l-360 -700q-33 -57 -54.5 -92t-54.5 -81.5t-64.5 -77.5t-73.5 -64t-93 -58.5t-113 -46.5zM391 1219q144 69 287 165l49 -79 q-126 -88 -291 -166z" />
<glyph unicode="&#xfe;" horiz-adv-x="1038" d="M8 -420l322 1825l119 16l-103 -565q89 74 195 118t209 44q99 0 148.5 -39.5t49.5 -128.5q0 -20 -8 -74l-88 -497q-28 -160 -108.5 -229.5t-247.5 -69.5q-140 0 -295 38l-76 -421zM219 123q167 -41 299 -41q102 0 151.5 47t69.5 158l86 489q6 37 6 62q0 45 -21.5 61 t-70.5 16q-93 0 -204.5 -53.5t-210.5 -142.5z" />
<glyph unicode="&#xff;" horiz-adv-x="856" d="M-29 -332q125 45 207.5 119t159.5 213h-57l-164 989l110 17l150 -930l317 629q45 86 45 159q0 43 -24 125l116 17q21 -78 21 -138q0 -90 -37 -168l-360 -700q-33 -57 -54.5 -92t-54.5 -81.5t-64.5 -77.5t-73.5 -64t-93 -58.5t-113 -46.5zM279 1163l26 142l123 4l-25 -142 zM627 1163l26 142l123 4l-26 -142z" />
<glyph unicode="&#x152;" horiz-adv-x="1806" d="M123 322q0 52 8 96l92 524q40 227 164.5 324.5t380.5 97.5h1063l-19 -104h-647l-90 -512h602l-18 -105h-602l-96 -539h649l-17 -104h-1061q-213 0 -311 86.5t-98 235.5zM240 328q0 -112 70.5 -168t240.5 -56h293l203 1156h-293q-194 0 -290 -75.5t-126 -242.5l-90 -516 q-8 -47 -8 -98z" />
<glyph unicode="&#x153;" horiz-adv-x="1581" d="M84 258q0 49 8 90l53 303q15 86 44.5 150.5t80.5 114.5t130.5 76t187.5 26q110 0 189 -44.5t112 -135.5q43 92 134 136t214 44q134 0 213.5 -63.5t79.5 -174.5q0 -125 -84 -200t-283 -117q-91 -19 -163.5 -33t-99.5 -18l-26 -4l-24 -140q-4 -18 -4 -55q0 -66 39.5 -99.5 t130.5 -33.5q161 0 375 88l28 -88q-89 -46 -199.5 -73t-218.5 -27q-102 0 -166 38t-77 113q-57 -75 -136.5 -113t-209.5 -38q-169 0 -248.5 75t-79.5 203zM199 262q0 -90 54 -135t177 -45q137 0 214.5 63.5t100.5 192.5l58 324q6 37 6 69q0 93 -57 138.5t-177 45.5 q-139 0 -215 -65.5t-100 -198.5l-55 -313q-6 -41 -6 -76zM893 514q61 8 260 47q81 16 134.5 38.5t81.5 52t39 60t11 70.5q0 138 -192 138q-133 0 -210.5 -71.5t-103.5 -217.5z" />
<glyph unicode="&#x178;" horiz-adv-x="1071" d="M166 1364h115l258 -825l534 825h133l-633 -958l-71 -406h-117l76 424zM440 1503l23 123h131l-23 -123h-131zM797 1503l22 123h131l-22 -123h-131z" />
<glyph unicode="&#x2c6;" horiz-adv-x="784" d="M266 1194q133 78 269 176q75 -73 229 -182l-47 -70q-111 67 -193 131q-37 -25 -68.5 -44t-78.5 -46.5t-68 -40.5z" />
<glyph unicode="&#x2dc;" horiz-adv-x="827" d="M266 1200q72 109 180 109q40 0 107.5 -36t101.5 -36q29 0 50.5 10.5t52.5 38.5l49 -49q-33 -47 -69 -70.5t-87 -23.5q-44 0 -118 35.5t-101 35.5q-23 0 -46 -10t-37 -21t-38 -32z" />
<glyph unicode="&#x2000;" horiz-adv-x="856" />
<glyph unicode="&#x2001;" horiz-adv-x="1712" />
<glyph unicode="&#x2002;" horiz-adv-x="856" />
<glyph unicode="&#x2003;" horiz-adv-x="1712" />
<glyph unicode="&#x2004;" horiz-adv-x="570" />
<glyph unicode="&#x2005;" horiz-adv-x="428" />
<glyph unicode="&#x2006;" horiz-adv-x="285" />
<glyph unicode="&#x2007;" horiz-adv-x="285" />
<glyph unicode="&#x2008;" horiz-adv-x="214" />
<glyph unicode="&#x2009;" horiz-adv-x="342" />
<glyph unicode="&#x200a;" horiz-adv-x="95" />
<glyph unicode="&#x2010;" horiz-adv-x="733" d="M143 524l17 101h471l-17 -101h-471z" />
<glyph unicode="&#x2011;" horiz-adv-x="733" d="M143 524l17 101h471l-17 -101h-471z" />
<glyph unicode="&#x2012;" horiz-adv-x="733" d="M143 524l17 101h471l-17 -101h-471z" />
<glyph unicode="&#x2013;" horiz-adv-x="966" d="M143 524l17 101h704l-16 -101h-705z" />
<glyph unicode="&#x2014;" horiz-adv-x="1232" d="M143 524l17 101h970l-16 -101h-971z" />
<glyph unicode="&#x2018;" horiz-adv-x="471" d="M256 1030l31 176l139 221l45 -28l-109 -193h48l-31 -176h-123z" />
<glyph unicode="&#x2019;" horiz-adv-x="460" d="M246 1036l108 193h-47l31 176h123l-31 -176l-139 -221z" />
<glyph unicode="&#x201a;" horiz-adv-x="491" d="M31 -193l108 193h-47l31 176h123l-31 -176l-139 -221z" />
<glyph unicode="&#x201c;" horiz-adv-x="788" d="M256 1030l31 176l139 221l45 -28l-109 -193h48l-31 -176h-123zM573 1030l31 176l139 221l45 -28l-108 -193h47l-31 -176h-123z" />
<glyph unicode="&#x201d;" horiz-adv-x="778" d="M246 1036l108 193h-47l31 176h123l-31 -176l-139 -221zM563 1036l109 193h-47l30 176h123l-30 -176l-140 -221z" />
<glyph unicode="&#x201e;" horiz-adv-x="808" d="M31 -193l108 193h-47l31 176h123l-31 -176l-139 -221zM348 -193l109 193h-47l30 176h123l-31 -176l-139 -221z" />
<glyph unicode="&#x2022;" horiz-adv-x="768" d="M174 662q0 98 69.5 167.5t166.5 69.5t166 -69.5t69 -167.5t-69 -168t-166 -70t-166.5 70t-69.5 168z" />
<glyph unicode="&#x2026;" horiz-adv-x="1433" d="M92 0l31 176h123l-31 -176h-123zM563 0l31 176h123l-31 -176h-123zM1034 0l31 176h123l-31 -176h-123z" />
<glyph unicode="&#x202f;" horiz-adv-x="342" />
<glyph unicode="&#x2039;" horiz-adv-x="579" d="M104 500l326 395l84 -74l-281 -332l162 -331l-102 -52z" />
<glyph unicode="&#x203a;" horiz-adv-x="579" d="M72 190l280 332l-162 332l103 51l188 -393l-325 -395z" />
<glyph unicode="&#x205f;" horiz-adv-x="428" />
<glyph unicode="&#x20ac;" horiz-adv-x="1075" d="M41 457l16 90h189l43 246h-187l17 90h186l12 65q37 210 156.5 302.5t364.5 92.5q148 0 268 -32l-21 -101q-127 29 -256 29q-191 0 -278.5 -67.5t-118.5 -235.5l-10 -53h430l-16 -90h-430l-44 -246h429l-17 -90h-428l-14 -80q-8 -47 -8 -96q0 -104 68 -150.5t233 -46.5 q116 0 264 29l4 -101q-128 -32 -297 -32q-204 0 -297.5 74.5t-93.5 217.5q0 41 10 103l14 82h-188z" />
<glyph unicode="&#x2122;" horiz-adv-x="1054" d="M225 1307v57h324v-57h-131v-365h-62v365h-131zM643 942l12 422h78l117 -315l119 315h71l15 -422h-64l-4 303l-96 -252h-82l-94 252l-6 -303h-66z" />
<glyph unicode="&#x25fc;" horiz-adv-x="1003" d="M0 0v1004h1004v-1004h-1004z" />
<glyph unicode="&#xfb03;" horiz-adv-x="1837" d="M6 -350q63 53 94.5 109.5t49.5 158.5l172 981h-187l17 98h188l33 189q23 131 94.5 195.5t196.5 64.5q116 0 221 -43l-25 -88q-104 33 -194 33q-83 0 -124 -40.5t-55 -121.5l-32 -189h583l33 189q23 131 94.5 195.5t196.5 64.5q139 0 295 -60l-25 -88q-155 50 -268 50 q-82 0 -123 -40.5t-55 -121.5l-33 -189h537l57 9l-176 -1006h-115l158 899h-479l-174 -995q-19 -109 -62.5 -186.5t-126.5 -141.5l-67 74q63 53 94 109.5t49 158.5l172 981h-584l-174 -995q-19 -109 -62.5 -186.5t-125.5 -141.5z" />
<glyph unicode="&#xfb04;" horiz-adv-x="1859" d="M6 -350q63 53 94.5 109.5t49.5 158.5l172 981h-187l17 98h188l33 189q23 131 94.5 195.5t196.5 64.5q116 0 221 -43l-25 -88q-104 33 -194 33q-83 0 -124 -40.5t-55 -121.5l-32 -189h583l33 189q13 72 33.5 118.5t59.5 80t98.5 47.5t148.5 14q145 0 315 -45l117 20 l-250 -1421h-114l231 1311q-170 39 -305 39q-113 0 -158 -37t-61 -127l-33 -189h285l-27 -98h-276l-174 -995q-19 -109 -62.5 -186.5t-126.5 -141.5l-67 74q63 53 94 109.5t49 158.5l172 981h-584l-174 -995q-19 -109 -62.5 -186.5t-125.5 -141.5z" />
</font>
</defs>
</svg>
